<svg xmlns="http://www.w3.org/2000/svg" width="59.689" height="59.689" viewBox="0 0 59.689 59.689">
  <g id="Grupo_51067" data-name="Grupo 51067" transform="translate(-21255 8221)">
    <g id="Grupo_50929" data-name="Grupo 50929" transform="translate(21255 -8221)">
      <g id="Grupo_2610" data-name="Grupo 2610">
        <g id="Grupo_2608" data-name="Grupo 2608">
          <path id="Caminho_1112" data-name="Caminho 1112" d="M29.845,59.689c-12.425,0-20.456-.837-24.732-5.113S0,42.27,0,29.845.837,9.389,5.113,5.113,17.419,0,29.845,0,50.3.837,54.577,5.113s5.113,12.306,5.113,24.732S58.853,50.3,54.577,54.577,42.27,59.689,29.845,59.689Z" fill="#12adee"/>
        </g>
      </g>
    </g>
    <g id="STYLE_COLOR" data-name="STYLE COLOR" transform="translate(21265.943 -8203.094)">
      <path id="Caminho_3512" data-name="Caminho 3512" d="M20.95,18.065h0l8.042,4.791,4.791-2.018h0a7.785,7.785,0,0,1,3.1-.611h.527A11.977,11.977,0,0,0,15.8,16.634h.12A9.5,9.5,0,0,1,20.95,18.065Z" transform="translate(-6.341 -11.236)" fill="#fff" stroke="#12adee" stroke-width="1"/>
      <path id="Caminho_3513" data-name="Caminho 3513" d="M14.619,21.681h0A9.5,9.5,0,0,0,9.583,20.25h-.12A9.581,9.581,0,0,0,1.726,35.31l7.09-2.994,3.162-1.323L19,28.041,22.667,26.5Z" transform="translate(-0.004 -14.852)" fill="#fff" stroke="#12adee" stroke-width="1"/>
      <path id="Caminho_3514" data-name="Caminho 3514" d="M46.252,26.28h-.527a7.785,7.785,0,0,0-3.084.635h0L37.85,28.933l1.389.832L43.8,32.5l1.988,1.2,6.8,4.072a7.785,7.785,0,0,0-6.33-11.486Z" transform="translate(-15.187 -17.272)" fill="#fff" stroke="#12adee" stroke-width="1"/>
      <path id="Caminho_3515" data-name="Caminho 3515" d="M31.753,35.431l-1.988-1.2L25.208,31.5l-1.389-.832-3.665,1.545-7.018,2.958L9.98,36.5,2.89,39.5a9.581,9.581,0,0,0,7.851,4.1H31.7a7.784,7.784,0,0,0,6.85-4.089Z" transform="translate(-1.162 -19.033)" fill="#fff" stroke="#12adee" stroke-width="1"/>
    </g>
  </g>
</svg>
