<svg xmlns="http://www.w3.org/2000/svg" width="59.367" height="59.367" viewBox="0 0 59.367 59.367">
  <g id="Grupo_51068" data-name="Grupo 51068" transform="translate(-21354 8221)">
    <g id="Grupo_2661" data-name="Grupo 2661" transform="translate(21354 -8221)">
      <g id="Grupo_2610" data-name="Grupo 2610">
        <g id="Grupo_2608" data-name="Grupo 2608">
          <path id="Caminho_1112" data-name="Caminho 1112" d="M29.683,59.367c-12.358,0-20.345-.832-24.6-5.085S0,42.042,0,29.683.832,9.338,5.085,5.085,17.325,0,29.683,0s20.345.832,24.6,5.085,5.085,12.24,5.085,24.6-.832,20.345-5.085,24.6S42.042,59.367,29.683,59.367Z" fill="#12adee"/>
        </g>
      </g>
    </g>
    <g id="logo_sharepoint" transform="translate(21364.883 -8209.127)">
      <circle id="Elipse_263" data-name="Elipse 263" cx="10.681" cy="10.681" r="10.681" transform="translate(7.12 0)" fill="#fff" stroke="#12adee" stroke-width="1"/>
      <circle id="Elipse_264" data-name="Elipse 264" cx="9.256" cy="9.256" r="9.256" transform="translate(19.225 11.393)" fill="#fff" stroke="#12adee" stroke-width="1"/>
      <circle id="Elipse_265" data-name="Elipse 265" cx="7.832" cy="7.832" r="7.832" transform="translate(11.393 20.649)" fill="#fff" stroke="#12adee" stroke-width="1"/>
      <path id="Caminho_3507" data-name="Caminho 3507" d="M27.161,19.6V37.685a1.191,1.191,0,0,1-.027.275,1.589,1.589,0,0,1-1.572,1.325H18.826c-.048-.227-.089-.453-.117-.687a5.667,5.667,0,0,1-.062-.687c-.007-.11-.007-.22-.007-.33a7.835,7.835,0,0,1,4.833-7.236,10.687,10.687,0,0,1-9.1-10.567A10.141,10.141,0,0,1,14.521,18h11.04a1.6,1.6,0,0,1,1.6,1.6Z" transform="translate(-7.25 -9.786)" fill="#12adee"/>
      <path id="Caminho_3508" data-name="Caminho 3508" d="M27.848,19.286V36a2.308,2.308,0,0,1-2.286,2.286H18.709a5.667,5.667,0,0,1-.062-.687c-.007-.11-.007-.22-.007-.33a7.835,7.835,0,0,1,4.833-7.236,10.687,10.687,0,0,1-9.1-10.567,10.141,10.141,0,0,1,.151-1.778c.034-.233.082-.46.137-.687h10.9a2.3,2.3,0,0,1,2.286,2.286Z" transform="translate(-7.98 -8.786)" fill="#12adee"/>
      <path id="Caminho_3510" data-name="Caminho 3510" d="M26.475,19.6V36.311a1.6,1.6,0,0,1-1.6,1.6H18.647c-.007-.11-.007-.22-.007-.33a7.835,7.835,0,0,1,4.833-7.236,10.687,10.687,0,0,1-9.1-10.567A10.141,10.141,0,0,1,14.521,18H24.875a1.6,1.6,0,0,1,1.6,1.6Z" transform="translate(-7.25 -9.1)" fill="#12adee" opacity="0.1"/>
      <path id="Caminho_3540" data-name="Caminho 3540" d="M1.6,0H17.623a1.6,1.6,0,0,1,1.6,1.6V17.623a1.6,1.6,0,0,1-1.6,1.6H1.6a1.6,1.6,0,0,1-1.6-1.6V1.6A1.6,1.6,0,0,1,1.6,0Z" transform="translate(0 8.9)" fill="#fff"/>
      <path id="Caminho_3511" data-name="Caminho 3511" d="M13.842,29.794a2.757,2.757,0,0,1-.857-.906,2.459,2.459,0,0,1-.3-1.239,2.385,2.385,0,0,1,.555-1.6,3.274,3.274,0,0,1,1.475-.961,6.233,6.233,0,0,1,2.015-.313,7.657,7.657,0,0,1,2.654.372v1.874a4.147,4.147,0,0,0-1.2-.491,5.826,5.826,0,0,0-1.4-.169,3.044,3.044,0,0,0-1.443.306.947.947,0,0,0-.573.867.879.879,0,0,0,.242.615,2.207,2.207,0,0,0,.653.467q.411.2,1.226.541a1.269,1.269,0,0,1,.175.07,10.107,10.107,0,0,1,1.545.762,2.765,2.765,0,0,1,.913.92,2.663,2.663,0,0,1,.33,1.387,2.584,2.584,0,0,1-.519,1.67,2.9,2.9,0,0,1-1.39.934,6.3,6.3,0,0,1-1.98.288,10.446,10.446,0,0,1-1.794-.148,6.157,6.157,0,0,1-1.457-.422v-1.98a4.689,4.689,0,0,0,1.474.7,5.743,5.743,0,0,0,1.622.26,2.79,2.79,0,0,0,1.471-.312.987.987,0,0,0,.5-.881.941.941,0,0,0-.277-.674,2.813,2.813,0,0,0-.765-.533q-.488-.246-1.443-.646a8.2,8.2,0,0,1-1.443-.755Z" transform="translate(-6.722 -11.22)" fill="#12adee"/>
    </g>
  </g>
</svg>
