<svg xmlns="http://www.w3.org/2000/svg" width="59.445" height="59.445" viewBox="0 0 59.445 59.445">
  <g id="Grupo_51069" data-name="Grupo 51069" transform="translate(-21451 8221)">
    <g id="Grupo_50927" data-name="Grupo 50927" transform="translate(21451 -8221)">
      <g id="Grupo_2610" data-name="Grupo 2610">
        <g id="Grupo_2608" data-name="Grupo 2608">
          <path id="Caminho_1112" data-name="Caminho 1112" d="M29.722,59.445c-12.374,0-20.372-.833-24.63-5.092S0,42.1,0,29.722.833,9.351,5.092,5.092,17.348,0,29.722,0s20.372.833,24.63,5.092,5.092,12.256,5.092,24.63-.833,20.372-5.092,24.63S42.1,59.445,29.722,59.445Z" fill="#12adee"/>
        </g>
      </g>
    </g>
    <g id="logo_MSTeams" transform="translate(21462.889 -8207.129)">
      <path id="Caminho_3524" data-name="Caminho 3524" d="M42,35.509v-8.72A.788.788,0,0,1,42.788,26h8.83a1.506,1.506,0,0,1,1.506,1.506v8a5.542,5.542,0,0,1-5.541,5.541h-.041A5.542,5.542,0,0,1,42,35.509Z" transform="translate(-17.134 -13.567)" fill="#fff"/>
      <circle id="Elipse_266" data-name="Elipse 266" cx="3.498" cy="3.498" r="3.498" transform="translate(27.107 3.498)" fill="#fff"/>
      <path id="Caminho_3525" data-name="Caminho 3525" d="M49.734,49.614q-.111-.005-.229-.014Q49.619,49.61,49.734,49.614Zm.1,0h-.05Z" transform="translate(-19.728 -21.724)" fill="#5059c9"/>
      <circle id="Elipse_267" data-name="Elipse 267" cx="5.247" cy="5.247" r="5.247" transform="translate(13.991 0)" fill="#fff"/>
      <path id="Caminho_3526" data-name="Caminho 3526" d="M36.8,26H21.527A1.518,1.518,0,0,0,20,27.51v9.06a9.161,9.161,0,1,0,18.322,0V27.51A1.518,1.518,0,0,0,36.8,26Z" transform="translate(-9.53 -13.567)" fill="#fff" stroke="#12adee" stroke-width="1"/>
      <path id="Caminho_3528" data-name="Caminho 3528" d="M29.161,22.889V35.106a2.2,2.2,0,0,1-2.179,2.179H20.857c-.1-.216-.2-.432-.281-.654A8.958,8.958,0,0,1,20,33.457V24.4a1.516,1.516,0,0,1,1.525-1.512Zm0-3.71v1.708a5.467,5.467,0,0,1-1.309,0,5.248,5.248,0,0,1-4.2-3.233A5.465,5.465,0,0,1,23.435,17h3.547A2.187,2.187,0,0,1,29.161,19.179Z" transform="translate(-10.184 -10.456)" fill="#12adee"/>
      <path id="Caminho_3529" data-name="Caminho 3529" d="M28.507,23.235V35.452a1.522,1.522,0,0,1-1.525,1.525H20.576A8.958,8.958,0,0,1,20,33.8V24.747a1.516,1.516,0,0,1,1.525-1.512Zm0-3.71v1.747a5.4,5.4,0,0,1-.654-.039A5.248,5.248,0,0,1,23.651,18h3.331a1.522,1.522,0,0,1,1.525,1.525Z" transform="translate(-9.53 -10.802)" fill="#12adee"/>
      <path id="Caminho_3530" data-name="Caminho 3530" d="M27.852,19.525v1.708A5.248,5.248,0,0,1,23.651,18h2.676a1.522,1.522,0,0,1,1.525,1.525Zm-6.328,3.71h6.328V35.452a1.522,1.522,0,0,1-1.525,1.525H20.576A8.958,8.958,0,0,1,20,33.8V24.747a1.516,1.516,0,0,1,1.525-1.512Z" transform="translate(-9.53 -10.802)" fill="#12adee" opacity="0.1"/>
      <rect id="Retângulo_36332" data-name="Retângulo 36332" width="18.363" height="18.363" rx="2.333" transform="translate(0 6.995)" fill="#fff"/>
      <path id="Caminho_3531" data-name="Caminho 3531" d="M19.855,25.654H16.868v8.525h-1.9V25.654H11.992V24h7.863Z" transform="translate(-6.762 -12.876)" fill="#12adee"/>
    </g>
  </g>
</svg>
