<svg xmlns="http://www.w3.org/2000/svg" width="59.663" height="59.663" viewBox="0 0 59.663 59.663">
  <g id="Grupo_51021" data-name="Grupo 51021" transform="translate(-21257 8134)">
    <g id="Grupo_50930" data-name="Grupo 50930" transform="translate(21257 -8134)">
      <g id="Grupo_2610" data-name="Grupo 2610">
        <g id="Grupo_2608" data-name="Grupo 2608">
          <path id="Caminho_1112" data-name="Caminho 1112" d="M29.831,59.663c-12.42,0-20.446-.836-24.721-5.111S0,42.251,0,29.831.836,9.385,5.111,5.111,17.411,0,29.831,0,50.278.836,54.552,5.111s5.111,12.3,5.111,24.721-.836,20.446-5.111,24.721S42.251,59.663,29.831,59.663Z" fill="#12adee"/>
        </g>
      </g>
    </g>
    <g id="logo_Exchange" transform="translate(21268.287 -8120.079)">
      <path id="Caminho_3532" data-name="Caminho 3532" d="M40.151,8H32.156a2.284,2.284,0,0,0-1.616.669L11.669,27.54A2.284,2.284,0,0,0,11,29.156v7.995a2.286,2.286,0,0,0,2.286,2.286H21.28a2.284,2.284,0,0,0,1.616-.669L41.767,19.9a2.286,2.286,0,0,0,.669-1.616V10.286A2.286,2.286,0,0,0,40.151,8Z" transform="translate(-5.769 -8)" fill="#fff"/>
      <path id="Caminho_3533" data-name="Caminho 3533" d="M48.433,47.718H40.438a2.286,2.286,0,0,1-1.617-.67L35,43.227V36.087A4.087,4.087,0,0,1,39.087,32h7.141l3.821,3.821a2.286,2.286,0,0,1,.669,1.616v7.995a2.286,2.286,0,0,1-2.286,2.286Z" transform="translate(-14.051 -16.282)" fill="#fff" stroke="#12adee" stroke-width="1"/>
      <path id="Caminho_3534" data-name="Caminho 3534" d="M13.286,8H21.28a2.286,2.286,0,0,1,1.617.67l3.821,3.821v7.141a4.087,4.087,0,0,1-4.087,4.087H15.491L11.669,19.9A2.286,2.286,0,0,1,11,18.28V10.286A2.286,2.286,0,0,1,13.286,8Z" transform="translate(-5.769 -8)" fill="#fff" stroke="#12adee" stroke-width="1"/>
      <path id="Caminho_3537" data-name="Caminho 3537" d="M24.968,19.595v16.66a1.657,1.657,0,0,1-.433,1.128,1.425,1.425,0,0,1-1.047.466H11V18H23.489a1.425,1.425,0,0,1,1.047.466A1.657,1.657,0,0,1,24.968,19.595Z" transform="translate(-5.769 -12.443)" fill="#12adee"/>
      <rect id="Retângulo_36333" data-name="Retângulo 36333" width="18.304" height="18.304" rx="2.333" transform="translate(0 6.518)" fill="#fff"/>
      <path id="Caminho_3539" data-name="Caminho 3539" d="M19.3,26.031H15.012v2.508h4.025v1.607H15.012v2.6h4.516v1.6H13.066V24.417H19.3Z" transform="translate(-6.482 -13.665)" fill="#12adee"/>
    </g>
  </g>
</svg>
